<?xml version="1.0" encoding="UTF-8" standalone="no"?>
<svg
   xmlns:dc="http://purl.org/dc/elements/1.1/"
   xmlns:cc="http://creativecommons.org/ns#"
   xmlns:rdf="http://www.w3.org/1999/02/22-rdf-syntax-ns#"
   xmlns:svg="http://www.w3.org/2000/svg"
   xmlns="http://www.w3.org/2000/svg"
   xmlns:sodipodi="http://sodipodi.sourceforge.net/DTD/sodipodi-0.dtd"
   xmlns:inkscape="http://www.inkscape.org/namespaces/inkscape"
   id="Group_1280"
   data-name="Group 1280"
   width="255.67"
   height="64.788788"
   viewBox="0 0 255.67 64.788791"
   version="1.1"
   sodipodi:docname="linkedin.svg"
   inkscape:version="0.92.3 (2405546, 2018-03-11)">
  <metadata
     id="metadata16">
    <rdf:RDF>
      <cc:Work
         rdf:about="">
        <dc:format>image/svg+xml</dc:format>
        <dc:type
           rdf:resource="http://purl.org/dc/dcmitype/StillImage" />
        <dc:title></dc:title>
      </cc:Work>
    </rdf:RDF>
  </metadata>
  <defs
     id="defs14" />
  <sodipodi:namedview
     pagecolor="#5751ff"
     bordercolor="#666666"
     borderopacity="1"
     objecttolerance="10"
     gridtolerance="10"
     guidetolerance="10"
     inkscape:pageopacity="0"
     inkscape:pageshadow="2"
     inkscape:window-width="1920"
     inkscape:window-height="1039"
     id="namedview12"
     showgrid="false"
     inkscape:zoom="4.5434198"
     inkscape:cx="84.381813"
     inkscape:cy="35.640561"
     inkscape:window-x="0"
     inkscape:window-y="0"
     inkscape:window-maximized="1"
     inkscape:current-layer="Group_1280"
     fit-margin-top="0"
     fit-margin-left="0"
     fit-margin-right="0"
     fit-margin-bottom="0" />
  <path
     id="Path_2514"
     data-name="Path 2514"
     d="m 0,9.587412 h 9.993 v 36.4 h 18.5 v 9.222 H 0 Z"
     style="fill:#ffffff"
     inkscape:connector-curvature="0" />
  <path
     id="Path_2515"
     data-name="Path 2515"
     d="m 32.911,24.276412 h 9.6 v 30.916 h -9.6 z m 4.8,-15.37 a 5.569,5.569 0 1 1 -5.57,5.569 5.569,5.569 0 0 1 5.57,-5.569"
     style="fill:#ffffff"
     inkscape:connector-curvature="0" />
  <path
     id="Path_2516"
     data-name="Path 2516"
     d="m 82.669,9.580412 h 9.6 v 27.265 l 10.88,-12.583 h 11.77 l -12.6,14.313 12.335,16.63 h -12.066 l -10.191,-15.282 h -0.126 v 15.28 h -9.6 z"
     style="fill:#ffffff"
     inkscape:connector-curvature="0" />
  <path
     id="Path_2517"
     data-name="Path 2517"
     d="m 47.834,24.279412 h 9.219 v 4.225 h 0.131 a 10.085,10.085 0 0 1 9.09,-4.994 c 9.735,0 11.527,6.405 11.527,14.726 v 16.954 h -9.6 v -15.031 c 0,-3.588 -0.066,-8.2 -5,-8.2 -4.99,0 -5.76,3.907 -5.76,7.939 v 15.288 h -9.6 z"
     style="fill:#ffffff"
     inkscape:connector-curvature="0" />
  <path
     id="Path_2518"
     data-name="Path 2518"
     d="m 135.136,36.138412 a 5.756,5.756 0 0 0 -5.894,-5.89 6.406,6.406 0 0 0 -6.784,5.89 z m 8.132,13.7 a 16.909,16.909 0 0 1 -13.128,6.151 c -9.6,0 -17.286,-6.408 -17.286,-16.331 0,-9.923 7.685,-16.328 17.286,-16.328 8.973,0 14.6,6.4 14.6,16.328 v 3.01 h -22.282 a 7.171,7.171 0 0 0 7.235,6.019 8.193,8.193 0 0 0 6.851,-3.778 z"
     style="fill:#ffffff"
     inkscape:connector-curvature="0" />
  <path
     id="Path_2519"
     data-name="Path 2519"
     d="m 164.75,31.749412 c -4.8,0 -7.68,3.205 -7.68,7.875 0,4.67 2.879,7.878 7.68,7.878 4.801,0 7.687,-3.2 7.687,-7.878 0,-4.678 -2.881,-7.875 -7.687,-7.875 m 16.525,23.437 h -8.838 v -4.1 h -0.131 a 12.071,12.071 0 0 1 -9.544,4.868 c -9.224,0 -15.3,-6.657 -15.3,-16.071 0,-8.646 5.377,-16.585 14.216,-16.585 3.973,0 7.684,1.087 9.861,4.1 h 0.126 v -17.821 h 9.609 z"
     style="fill:#ffffff"
     inkscape:connector-curvature="0" />
  <path
     id="Path_2520"
     data-name="Path 2520"
     d="m 246.084,55.204412 h -9.6 v -15.034 c 0,-3.585 -0.064,-8.2 -4.993,-8.2 -5,0 -5.765,3.906 -5.765,7.939 v 15.294 h -9.6 v -30.916 h 9.216 v 4.225 h 0.129 a 10.1,10.1 0 0 1 9.093,-4.994 c 9.73,0 11.524,6.4 11.524,14.726 z m -40.79,-35.143 a 5.571,5.571 0 1 1 5.57,-5.572 5.571,5.571 0 0 1 -5.57,5.572 m 4.8,35.143 h -9.61 v -30.917 h 9.61 z M 250.87,0.00441201 H 195.66 A 4.728,4.728 0 0 0 190.879,4.674412 v 55.439 a 4.731,4.731 0 0 0 4.781,4.675 h 55.21 a 4.741,4.741 0 0 0 4.8,-4.675 v -55.443 a 4.738,4.738 0 0 0 -4.8,-4.66999999257"
     style="fill:#ffffff"
     inkscape:connector-curvature="0" />
</svg>
