<?xml version="1.0" encoding="UTF-8" standalone="no"?>
<!-- Generator: Adobe Illustrator 18.0.0, SVG Export Plug-In . SVG Version: 6.00 Build 0)  -->

<svg
   xmlns:dc="http://purl.org/dc/elements/1.1/"
   xmlns:cc="http://creativecommons.org/ns#"
   xmlns:rdf="http://www.w3.org/1999/02/22-rdf-syntax-ns#"
   xmlns:svg="http://www.w3.org/2000/svg"
   xmlns="http://www.w3.org/2000/svg"
   xmlns:sodipodi="http://sodipodi.sourceforge.net/DTD/sodipodi-0.dtd"
   xmlns:inkscape="http://www.inkscape.org/namespaces/inkscape"
   version="1.1"
   id="Capa_1"
   x="0px"
   y="0px"
   viewBox="0 0 455.731 370.00001"
   xml:space="preserve"
   sodipodi:docname="twitter.svg"
   inkscape:version="0.92.3 (2405546, 2018-03-11)"
   width="455.73099"
   height="370"><metadata
   id="metadata43"><rdf:RDF><cc:Work
       rdf:about=""><dc:format>image/svg+xml</dc:format><dc:type
         rdf:resource="http://purl.org/dc/dcmitype/StillImage" /><dc:title></dc:title></cc:Work></rdf:RDF></metadata><defs
   id="defs41" /><sodipodi:namedview
   pagecolor="#28ffff"
   bordercolor="#666666"
   borderopacity="1"
   objecttolerance="10"
   gridtolerance="10"
   guidetolerance="10"
   inkscape:pageopacity="0"
   inkscape:pageshadow="2"
   inkscape:window-width="1920"
   inkscape:window-height="1039"
   id="namedview39"
   showgrid="false"
   inkscape:zoom="0.73732849"
   inkscape:cx="-51.62583"
   inkscape:cy="200.61321"
   inkscape:window-x="0"
   inkscape:window-y="0"
   inkscape:window-maximized="1"
   inkscape:current-layer="g6" />
<g
   id="g6"
   transform="translate(0,-85.73097)">
	
	<path
   style="fill:#ffffff;fill-opacity:1;stroke-width:1.34411132"
   d="M 3.1024852,413.37203 C 43.86938,439.22735 92.227813,454.19 144.06616,454.19 c 145.6331,0 263.68774,-118.06808 263.68774,-263.68774 0,-3.63582 -0.0767,-7.24476 -0.21641,-10.84295 5.26758,-4.14523 37.84614,-30.25729 45.83151,-47.04389 0,0 -26.45614,10.99482 -52.34909,13.58492 -0.051,0 -0.11426,0.0122 -0.16533,0.0122 0,0 0.051,-0.0255 0.13978,-0.0887 2.38581,-1.59413 35.74126,-24.30019 40.25748,-51.354459 0,0 -18.71272,9.988089 -44.91348,18.726149 -4.33745,1.44089 -8.87786,2.85758 -13.55939,4.17078 -16.88876,-18.02453 -40.89459,-29.274738 -67.54159,-29.274738 -51.11252,0 -92.52996,41.405338 -92.52996,92.478898 0,7.20711 0.8293,14.22203 2.39789,20.95738 -7.1426,-0.29303 -115.91212,-6.39126 -189.908135,-96.00047 0,0 -44.22395,60.37345 26.353991,122.45525 0,0 -21.454707,-0.85485 -39.964462,-11.91419 0,0 -6.798515,73.14115 73.129054,91.84177 0,0 -15.727445,5.95711 -40.817961,1.70971 0,0 14.031178,59.09789 85.043263,64.62083 0,0 -56.152938,50.72677 -135.864113,38.82465 z"
   id="path4"
   inkscape:connector-curvature="0" />
</g>
<g
   id="g8"
   transform="translate(0,-85.73097)">
</g>
<g
   id="g10"
   transform="translate(0,-85.73097)">
</g>
<g
   id="g12"
   transform="translate(0,-85.73097)">
</g>
<g
   id="g14"
   transform="translate(0,-85.73097)">
</g>
<g
   id="g16"
   transform="translate(0,-85.73097)">
</g>
<g
   id="g18"
   transform="translate(0,-85.73097)">
</g>
<g
   id="g20"
   transform="translate(0,-85.73097)">
</g>
<g
   id="g22"
   transform="translate(0,-85.73097)">
</g>
<g
   id="g24"
   transform="translate(0,-85.73097)">
</g>
<g
   id="g26"
   transform="translate(0,-85.73097)">
</g>
<g
   id="g28"
   transform="translate(0,-85.73097)">
</g>
<g
   id="g30"
   transform="translate(0,-85.73097)">
</g>
<g
   id="g32"
   transform="translate(0,-85.73097)">
</g>
<g
   id="g34"
   transform="translate(0,-85.73097)">
</g>
<g
   id="g36"
   transform="translate(0,-85.73097)">
</g>
</svg>